<svg xmlns="http://www.w3.org/2000/svg" width="1143" height="1524" viewBox="0 0 1280.2 1706.2">
    <g id="Layer_4">
        <rect width="1024.2" height="1355.2" x="127.8" y="178.7" fill="#efefef" rx="36.5" ry="36.5"/>
        <rect width="881.4" height="1166.3" x="199.1" y="273.2" fill="#efefef" rx="31.4" ry="31.4"/>
        <path d="M199.9 250.2h421.4v29.6H199.9z" fill="#d8d9da"/>
        <path d="M199.9 256.7h421.4v29.6H199.9z" fill="#949494"/>
        <path d="M713.5 250.6h367.2v29.6H713.5z" fill="#d8d9da"/>
        <path d="M713.5 256.7h367.2v29.6H713.5z" fill="#949494"/>
        <path d="M199.9 252.4h10.2v216.4h-10.2z" fill="#d8d9da"/>
        <path d="M199.9 255.1h10.2v216.4h-10.2zm871.2-2.7h10.2v216.4h-10.2z" fill="#d8d9da"/>
        <path d="M1071.1 255.1h10.2v216.4h-10.2zM591 251.5h11.3V594H591z" fill="#d8d9da"/>
        <path d="M591 255.1h11.3v342.5H591zm188.1-3.6h11.3V594h-11.3z" fill="#d8d9da"/>
        <path d="M779.1 255.1h11.3v342.5h-11.3z" fill="#d8d9da"/>
        <path d="M200.3 558.8h875.9v29.6H200.3z" fill="#d8d9da"/>
        <path d="M200.3 568.1h875.9v29.6H200.3z" fill="#949494"/>
        <path d="M200.3 558.8h880.9v29.6H200.3z" fill="#d8d9da"/>
        <path d="M200.3 568.1h880.9v29.6H200.3z" fill="#949494"/>
        <path d="M469.2 979.5s29.6-33 77.5-43.1v7.6s-39.4 9.9-66.7 35.5h-10.8Zm341.8.2s-29.6-33-77.5-43.1v7.6s39.4 9.9 66.7 35.5H811Zm-166.6-65.5h57.1c3.8 0 10.6-.3 10.6 7.1s-6.8 7.4-10.4 7.4h-57.2v26.4h8.1v-19.6h54.8c5.7 0 4.8 7.3 4.8 7.3v12.3h8v-11.8c0-7.5-4.9-11.3-4.9-11.3 4.8-3.1 4.8-10.5 4.8-10.5 0-14.1-10.6-14.4-15.4-14.4h-60.2v7.2ZM556 907v7.8h53c1.4 0 14.2.7 14.5 15.9.3 15.2-12.9 16.2-14.4 16.2s-53.1.1-53.1.1v7.8h51.7c3.6 0 23.4.4 23.4-23.5S612.4 907 607.8 907H556Zm-.6 74.2v1.4c-.4.3-.8.5-1.4.7-.5.2-1.1.3-1.6.3-1.1 0-2-.3-2.6-1-.7-.7-1-1.7-1-3s.3-2.2 1-2.8c.7-.6 1.5-.9 2.7-.9s1.3.2 1.8.5.8.8 1 1.3l2.5-.4c-.3-1-.8-1.8-1.7-2.4-.9-.6-2.1-.9-3.7-.9s-2.2.2-3 .6c-1.1.5-1.9 1.2-2.4 2.1-.6.9-.8 2-.8 3.1s.2 2.1.7 3c.5.9 1.2 1.6 2.2 2.1 1 .5 2.1.7 3.5.7s2.1-.2 3.1-.5c1-.4 1.8-.8 2.3-1.2v-4.5h-5.5v1.9h2.9Zm10.5-7.2h-2.7l-4.9 11.3h2.7l1-2.6h5.1l1.1 2.6h2.8l-5.1-11.3Zm-3.1 6.8 1.7-4.2 1.7 4.2h-3.5Zm11.4 4.5v-8.9l2.5 8.9h2.5l2.5-8.9v8.9h2.4V974h-3.8l-2.3 7.7-2.3-7.7h-3.8v11.3h2.4Zm14 0V974h-2.6v11.3h2.6Zm4.1 0V978l5.1 7.3h2.6V974h-2.4v7.5l-5.2-7.5h-2.5v11.3h2.4Zm18-4.1v1.4c-.4.3-.8.5-1.4.7-.5.2-1.1.3-1.6.3-1.1 0-2-.3-2.6-1-.7-.7-1-1.7-1-3s.3-2.2 1-2.8c.7-.6 1.5-.9 2.7-.9s1.3.2 1.8.5.8.8 1 1.3l2.5-.4c-.3-1-.8-1.8-1.7-2.4-.9-.6-2.1-.9-3.7-.9s-2.2.2-3 .6c-1.1.5-1.9 1.2-2.4 2.1-.6.9-.8 2-.8 3.1s.2 2.1.7 3c.5.9 1.2 1.6 2.2 2.1 1 .5 2.1.7 3.5.7s2.1-.2 3.1-.5c1-.4 1.8-.8 2.3-1.2v-4.5h-5.5v1.9h2.9Zm14.3 4.1v-9.4h3.7V974h-10v1.9h3.8v9.4h2.6Zm14.6 0v-1.9h-7.1v-3.1h6.3v-1.9h-6.3v-2.5h6.8V974h-9.4v11.3h9.6Zm8.1-2.3c-.5.4-1.1.6-1.8.6s-1.7-.3-2.2-.9c-.6-.6-.9-1.6-.9-3s.3-2.3.9-2.9c.6-.6 1.3-.9 2.3-.9s1.3.2 1.7.5c.5.3.8.8.9 1.4l2.5-.5c-.3-.9-.7-1.6-1.3-2.1-1-.8-2.2-1.2-3.8-1.2s-3.2.5-4.3 1.6c-1.1 1-1.6 2.5-1.6 4.4s.5 3.2 1.6 4.2 2.5 1.5 4.1 1.5 2.5-.3 3.4-.9c.9-.6 1.5-1.5 1.9-2.7l-2.5-.7c-.2.8-.6 1.4-1.1 1.8Zm7.1 2.3v-4.9h5v4.9h2.6V974h-2.6v4.4h-5V974h-2.6v11.3h2.6Zm11.4 0V978l5.1 7.3h2.6V974h-2.4v7.5l-5.2-7.5h-2.5v11.3h2.4Zm10.8-1.3c1.1 1 2.6 1.5 4.5 1.5s3.3-.5 4.5-1.5c1.1-1 1.7-2.5 1.7-4.3s-.6-3.3-1.7-4.3-2.6-1.5-4.5-1.5-1.9.1-2.7.4c-.6.2-1.1.6-1.6 1-.5.5-.9 1-1.2 1.5-.4.8-.6 1.7-.6 2.9 0 1.8.6 3.2 1.7 4.2Zm1.9-7.2c.6-.6 1.5-1 2.5-1s1.9.3 2.5 1c.6.6 1 1.6 1 2.9s-.3 2.3-1 2.9c-.7.7-1.5 1-2.5 1s-1.9-.3-2.5-1c-.7-.7-1-1.6-1-2.9s.3-2.3 1-2.9Zm18.8 8.5v-1.9H691v-9.3h-2.6v11.2h8.9Zm1.8-1.3c1.1 1 2.6 1.5 4.5 1.5s3.3-.5 4.5-1.5c1.1-1 1.7-2.5 1.7-4.3s-.6-3.3-1.7-4.3-2.6-1.5-4.5-1.5-1.9.1-2.7.4c-.6.2-1.1.6-1.6 1-.5.5-.9 1-1.2 1.5-.4.8-.6 1.7-.6 2.9 0 1.8.6 3.2 1.7 4.2Zm2-7.2c.6-.6 1.5-1 2.5-1s1.9.3 2.5 1c.6.6 1 1.6 1 2.9s-.3 2.3-1 2.9c-.7.7-1.5 1-2.5 1s-1.9-.3-2.5-1c-.7-.7-1-1.6-1-2.9s.3-2.3 1-2.9Zm19 4.4v1.4c-.4.3-.8.5-1.4.7-.5.2-1.1.3-1.6.3-1.1 0-2-.3-2.6-1-.7-.7-1-1.7-1-3s.3-2.2 1-2.8c.7-.6 1.5-.9 2.7-.9s1.4.2 1.8.5c.5.3.8.8 1 1.3l2.5-.4c-.3-1-.8-1.8-1.7-2.4-.9-.6-2.1-.9-3.7-.9s-2.2.2-3 .6c-1.1.5-1.9 1.2-2.4 2.1-.6.9-.8 2-.8 3.1s.2 2.1.7 3c.5.9 1.2 1.6 2.2 2.1 1 .5 2.1.7 3.5.7s2.1-.2 3.1-.5c1-.4 1.8-.8 2.3-1.2v-4.5h-5.5v1.9h2.9Zm9.7 4.1v-4.7l4.6-6.5h-2.9l-2.9 4.5-3-4.5h-3l4.6 6.5v4.7h2.5Zm-213.6 44.8v7.5h-4.3v-7.5l-6.6-10.2h5.2l3.8 6.5 3.8-6.5h5l-6.8 10.2Zm27-1.4c0 1.4-.2 2.7-.7 3.8-.5 1.2-1.1 2.1-2 3-.9.8-1.9 1.5-3 1.9-1.2.4-2.5.7-3.8.7s-2.6-.2-3.8-.7c-1.2-.4-2.2-1.1-3-1.9-.9-.8-1.5-1.8-2-3s-.7-2.4-.7-3.8.2-2.7.7-3.8c.5-1.1 1.1-2.1 2-2.9.9-.8 1.9-1.4 3-1.8 1.2-.4 2.4-.6 3.8-.6s2.7.2 3.8.6c1.2.4 2.2 1 3 1.8.9.8 1.5 1.8 2 2.9.5 1.1.7 2.4.7 3.8Zm-4.6 0c0-.8-.1-1.5-.4-2.1-.2-.7-.6-1.2-1-1.7s-1-.8-1.6-1.1c-.6-.3-1.3-.4-2.1-.4s-1.4.1-2 .4c-.6.3-1.1.6-1.6 1.1-.4.5-.8 1-1 1.7-.2.7-.4 1.4-.4 2.1s.1 1.5.4 2.2c.2.7.6 1.2 1 1.7s1 .9 1.6 1.1c.6.3 1.3.4 2 .4s1.4-.1 2-.4c.6-.3 1.1-.7 1.6-1.1.4-.5.8-1.1 1-1.7.2-.7.4-1.4.4-2.2Zm22.3 5.2c-.4.9-.9 1.6-1.5 2.2-.7.6-1.5 1.1-2.4 1.5-.9.3-2 .5-3.1.5s-2.2-.2-3.1-.5c-.9-.3-1.7-.8-2.4-1.5-.6-.6-1.1-1.4-1.5-2.2s-.5-1.8-.5-2.9v-11h4.2v10.6c0 .5 0 .9.2 1.4.1.4.3.8.6 1.2.3.3.6.6 1 .8.4.2.9.3 1.5.3s1.1 0 1.5-.3c.4-.2.8-.5 1-.8.3-.3.5-.7.6-1.2.1-.4.2-.9.2-1.4V1020h4.3v11c0 1.1-.2 2-.5 2.9Zm13.9 3.7-3.8-7h-1.5v7h-4.2V1020h6.7c.8 0 1.7 0 2.5.3.8.2 1.5.5 2.2.9.6.4 1.1 1 1.5 1.6.4.7.6 1.5.6 2.5s-.3 2.2-1 3c-.6.8-1.5 1.4-2.7 1.7l4.6 7.5h-5Zm-.2-12.2c0-.4 0-.8-.3-1-.2-.3-.4-.5-.7-.6l-.9-.3h-3.3v4.1h3.1c.4 0 .7-.2 1-.3.3-.1.5-.4.7-.6.2-.3.3-.6.3-1.1Zm27.1 12.2-7.1-11.5v11.5h-4V1020h4.9l7.1 11.5V1020h4v17.6h-4.8Zm9 0V1020h11.8v3.6h-7.7v3.3h7.3v3.4h-7.3v3.7h8.2v3.6h-12.3Zm26.2 0-3.9-6.2-3.7 6.2h-5.1l6.2-9.3-5.7-8.3h5.1l3.3 5.5 3.2-5.5h5l-5.6 8.3 6.4 9.3h-5.3Zm14.9-14v14h-4.3v-14h-5v-3.6h14.2v3.6h-5Zm25 1c-.4-.5-.8-.8-1.4-1.1-.6-.3-1.2-.4-1.7-.4h-.9c-.3 0-.6.1-.8.3-.2.1-.4.3-.6.5-.2.2-.2.5-.2.9s0 .5.2.7c.1.2.3.4.5.5.2.1.5.3.9.4.3.1.7.3 1.1.4.6.2 1.2.4 1.9.7.6.2 1.2.6 1.8 1 .5.4 1 .9 1.3 1.5.3.6.5 1.3.5 2.2s-.2 1.9-.6 2.6c-.4.7-.9 1.3-1.5 1.8s-1.4.8-2.2 1.1c-.8.2-1.7.3-2.5.3-1.3 0-2.5-.2-3.7-.7-1.2-.4-2.2-1.1-2.9-1.9l2.8-2.8c.4.5 1 1 1.7 1.3.7.4 1.4.5 2.1.5h.9c.3 0 .6-.2.8-.3.2-.1.4-.3.5-.6.1-.2.2-.5.2-.9s0-.6-.2-.8c-.2-.2-.4-.4-.7-.6-.3-.2-.7-.4-1.1-.5-.5-.2-1-.3-1.6-.5-.6-.2-1.1-.4-1.7-.6-.5-.2-1-.6-1.4-1-.4-.4-.8-.9-1-1.4-.3-.6-.4-1.2-.4-2s.2-1.8.6-2.5.9-1.3 1.6-1.7c.6-.4 1.4-.8 2.2-1 .8-.2 1.6-.3 2.5-.3s2 .2 3 .5c1 .4 1.9.9 2.7 1.6l-2.7 2.9Zm14.4 5.5v7.5h-4.3v-7.5l-6.6-10.2h5.2l3.8 6.5 3.8-6.5h5l-6.8 10.2Zm17.9-5.5c-.4-.5-.8-.8-1.4-1.1-.6-.3-1.2-.4-1.7-.4h-.9c-.3 0-.6.1-.8.3-.2.1-.4.3-.6.5-.2.2-.2.5-.2.9s0 .5.2.7c.1.2.3.4.5.5.2.1.5.3.9.4.3.1.7.3 1.1.4.6.2 1.2.4 1.9.7.6.2 1.2.6 1.8 1 .5.4 1 .9 1.3 1.5.3.6.5 1.3.5 2.2s-.2 1.9-.6 2.6c-.4.7-.9 1.3-1.5 1.8s-1.4.8-2.2 1.1c-.8.2-1.7.3-2.5.3-1.3 0-2.5-.2-3.7-.7-1.2-.4-2.2-1.1-2.9-1.9l2.8-2.8c.4.5 1 1 1.7 1.3.7.4 1.4.5 2.1.5h.9c.3 0 .6-.2.8-.3.2-.1.4-.3.5-.6.1-.2.2-.5.2-.9s0-.6-.2-.8c-.2-.2-.4-.4-.7-.6-.3-.2-.7-.4-1.1-.5-.5-.2-1-.3-1.6-.5-.6-.2-1.1-.4-1.7-.6-.5-.2-1-.6-1.4-1-.4-.4-.8-.9-1-1.4-.3-.6-.4-1.2-.4-2s.2-1.8.6-2.5.9-1.3 1.6-1.7c.6-.4 1.4-.8 2.2-1 .8-.2 1.6-.3 2.5-.3s2 .2 3 .5c1 .4 1.9.9 2.7 1.6l-2.7 2.9Zm13.4-1v14h-4.3v-14h-5v-3.6h14.2v3.6h-5Zm7.5 14V1020h11.8v3.6h-7.7v3.3h7.3v3.4h-7.3v3.7h8.2v3.6H730Zm31.5 0v-12.5l-4.6 12.5h-3l-4.5-12.5v12.5h-3.9V1020h6.1l4 11.3 3.8-11.3h6.2v17.6h-4.2Zm13.4-2.1c0 .3 0 .6-.2.9-.1.3-.3.5-.5.7-.2.2-.5.4-.8.5-.3.1-.6.2-.9.2s-.6 0-.9-.2c-.3-.1-.5-.3-.8-.5-.2-.2-.4-.5-.5-.7-.1-.3-.2-.6-.2-.9s0-.6.2-.9c.1-.3.3-.5.5-.8s.5-.4.8-.5c.3-.1.6-.2.9-.2s.6 0 .9.2c.3.1.6.3.8.5.2.2.4.5.5.7.1.3.2.6.2.9Zm-4.6-3.8V1020h4.2v11.7h-4.2Z" fill="#5f328e"/>
        <path fill="none" stroke="#5f328e" stroke-linecap="round" stroke-miterlimit="10" stroke-width="1.1" d="M506.1 1002.5h268.1"/>
        <path d="M255.9 755.4c.8 1 1.2 2.1 1.2 3.4 0 1.8-.6 3.3-1.9 4.4-1.3 1.1-3.1 1.6-5.4 1.6h-10.2v-21.9h9.9c2.2 0 4 .5 5.2 1.5 1.3 1 1.9 2.4 1.9 4.2s-.3 2.4-1 3.2c-.7.9-1.6 1.4-2.7 1.8 1.3.3 2.3.9 3.1 1.9Zm-11-3.7h3.5c.9 0 1.5-.2 2-.6s.7-1 .7-1.7-.2-1.3-.7-1.7c-.5-.4-1.1-.6-2-.6h-3.5v4.6Zm6 8.1c.5-.4.7-1 .7-1.8s-.3-1.4-.8-1.8-1.2-.7-2.1-.7h-3.9v4.8h3.9c.9 0 1.6-.2 2.1-.6Zm14.6-12.7v4.4h7.2v4.1h-7.2v4.8h8.1v4.3h-13.4v-21.9h13.4v4.3h-8.1Zm26.1 2.6c-.4-.7-1-1.3-1.7-1.7-.7-.4-1.6-.6-2.6-.6-1.7 0-3.1.6-4.2 1.7-1 1.1-1.6 2.7-1.6 4.5s.5 3.6 1.6 4.7 2.6 1.7 4.5 1.7 2.4-.3 3.3-1 1.6-1.6 2-2.9h-6.8v-3.9h11.6v5c-.4 1.3-1.1 2.6-2 3.7-.9 1.1-2.2 2.1-3.6 2.8-1.5.7-3.1 1.1-4.9 1.1s-4.1-.5-5.8-1.4c-1.7-.9-3-2.3-4-4s-1.4-3.6-1.4-5.8.5-4.1 1.4-5.8 2.3-3 4-4c1.7-.9 3.6-1.4 5.8-1.4s4.8.6 6.6 1.9c1.8 1.3 3 3 3.6 5.3h-5.9Zm14.6-2.6v4.4h7.2v4.1h-7.2v4.8h8.1v4.3h-13.4v-21.9h13.4v4.3h-8.1Zm18.5 12.6c2-1.7 3.7-3.1 4.8-4.2 1.2-1.1 2.2-2.2 3-3.4.8-1.2 1.2-2.3 1.2-3.5s-.2-1.5-.6-2c-.4-.5-1-.7-1.8-.7s-1.4.3-1.9.9c-.4.6-.7 1.4-.7 2.5h-5.2c0-1.8.4-3.3 1.1-4.4.7-1.2 1.7-2.1 2.8-2.6 1.2-.6 2.5-.8 3.9-.8 2.5 0 4.4.6 5.6 1.9 1.3 1.3 1.9 2.9 1.9 5s-.8 4.3-2.3 6.2-3.5 3.8-5.8 5.6h8.4v4.3h-15.7v-4c.7-.6 1-.8 1-.8Zm17.2 1v-4.3l9.9-14.1h6v13.8h2.6v4.6h-2.6v4.1h-5.3v-4.1H342Zm10.9-12.6-5.3 7.9h5.3v-7.9Zm584.8 7.3c.8 1 1.2 2.1 1.2 3.4 0 1.8-.6 3.3-1.9 4.4-1.3 1.1-3.1 1.6-5.4 1.6h-10.2v-21.9h9.9c2.2 0 4 .5 5.2 1.5 1.3 1 1.9 2.4 1.9 4.2s-.3 2.4-1 3.2c-.7.9-1.6 1.4-2.7 1.8 1.3.3 2.3.9 3.1 1.9Zm-11-3.7h3.5c.9 0 1.5-.2 2-.6s.7-1 .7-1.7-.2-1.3-.7-1.7c-.5-.4-1.1-.6-2-.6h-3.5v4.6Zm6 8.1c.5-.4.7-1 .7-1.8s-.3-1.4-.8-1.8-1.2-.7-2.1-.7h-3.9v4.8h3.9c.9 0 1.6-.2 2.1-.6Zm14.6-12.7v4.4h7.2v4.1h-7.2v4.8h8.1v4.3h-13.4v-21.9h13.4v4.3h-8.1Zm26.1 2.6c-.4-.7-1-1.3-1.7-1.7-.7-.4-1.6-.6-2.6-.6-1.7 0-3.1.6-4.2 1.7-1 1.1-1.6 2.7-1.6 4.5s.5 3.6 1.6 4.7 2.6 1.7 4.5 1.7 2.4-.3 3.3-1 1.6-1.6 2-2.9h-6.8v-3.9h11.6v5c-.4 1.3-1.1 2.6-2 3.7-.9 1.1-2.2 2.1-3.6 2.8-1.5.7-3.1 1.1-4.9 1.1s-4.1-.5-5.8-1.4c-1.7-.9-3-2.3-4-4s-1.4-3.6-1.4-5.8.5-4.1 1.4-5.8 2.3-3 4-4c1.7-.9 3.6-1.4 5.8-1.4s4.8.6 6.6 1.9c1.8 1.3 3 3 3.6 5.3h-5.9Zm14.6-2.6v4.4h7.2v4.1h-7.2v4.8h8.1v4.3h-13.4v-21.9H996v4.3h-8.1Zm18.5 12.6c2-1.7 3.7-3.1 4.8-4.2 1.2-1.1 2.2-2.2 3-3.4.8-1.2 1.2-2.3 1.2-3.5s-.2-1.5-.6-2c-.4-.5-1-.7-1.8-.7s-1.4.3-1.9.9c-.4.6-.7 1.4-.7 2.5h-5.2c0-1.8.4-3.3 1.1-4.4.7-1.2 1.7-2.1 2.8-2.6 1.2-.6 2.5-.8 3.9-.8 2.5 0 4.4.6 5.6 1.9 1.3 1.3 1.9 2.9 1.9 5s-.8 4.3-2.3 6.2-3.5 3.8-5.8 5.6h8.4v4.3h-15.7v-4c.7-.6 1-.8 1-.8Zm17.2 1v-4.3l9.9-14.1h6v13.8h2.6v4.6h-2.6v4.1h-5.3v-4.1h-10.5Zm10.8-12.6-5.3 7.9h5.3v-7.9Z" fill="#5f328e"/>
    </g><g id="Layer_5">
        <circle cx="597.4" cy="832.9" r="24" fill="#949494"/>
        <circle cx="515.4" cy="832.9" r="24" fill="#949494"/>
        <circle cx="433.5" cy="832.9" r="24" fill="#949494"/>
        <circle cx="441" cy="339" r="24" fill="#949494"/>
        <circle cx="523.8" cy="422.7" r="24" fill="#949494"/>
        <circle cx="268.3" cy="422.7" r="24" fill="#949494"/>
        <circle cx="441" cy="503.2" r="24" fill="#949494"/>
        <circle cx="356.6" cy="339" r="24" fill="#949494"/>
        <circle cx="356.6" cy="503.2" r="24" fill="#949494"/>
        <circle cx="679.3" cy="832.9" r="24" fill="#949494"/>
        <circle cx="761.3" cy="832.9" r="24" fill="#949494"/>
        <circle cx="843.2" cy="832.9" r="24" fill="#949494"/>
        <rect width="471.5" height="78.8" x="401.9" y="720.9" fill="#d8d9da" rx="15.7" ry="15.7"/>
        <path d="M401.9 781h471.5v18.6H401.9z" fill="#949494"/>
        <rect width="189.6" height="67.7" x="542.8" y="1371.4" fill="#d8d9da" rx="9.3" ry="9.3"/>
        <path d="M542.8 1423.1h189.6v16H542.8z" fill="#949494"/>
        <circle cx="278.1" cy="938.8" r="24" fill="#949494"/>
        <circle cx="358.9" cy="938.8" r="24" fill="#949494"/>
        <circle cx="278.1" cy="1081.2" r="24" fill="#949494"/>
        <circle cx="358.9" cy="1081.2" r="24" fill="#949494"/>
        <rect width="171.9" height="74.5" x="222.6" y="969.9" fill="#d8d9da" rx="15.4" ry="15.4"/>
        <rect width="34.8" height="133.3" x="200.3" y="940.5" fill="#949494" rx="3.3" ry="3.3"/>
        <circle cx="1004.1" cy="1081.2" r="24" fill="#949494"/>
        <circle cx="923.3" cy="1081.2" r="24" fill="#949494"/>
        <circle cx="1004.1" cy="938.8" r="24" fill="#949494"/>
        <circle cx="923.3" cy="938.8" r="24" fill="#949494"/>
        <rect width="171.9" height="74.5" x="887.8" y="975.5" fill="#d8d9da" rx="15.4" ry="15.4" transform="rotate(180 973.7 1012.75)"/>
        <rect width="34.8" height="133.3" x="1047.1" y="946.1" fill="#949494" rx="3.3" ry="3.3" transform="rotate(180 1064.55 1012.75)"/>
        <rect width="190.5" height="93" x="304" y="375.4" fill="#d8d9da" rx="14.2" ry="14.2"/>
    </g>
    <g id="Layer_3">
        <rect width="71" height="12.7" x="939.8" y="655.7" fill="#707070" rx="3.7" ry="3.7" transform="rotate(180 975.35 662.05)"/>
        <path d="M932.3 603.1h86.2c2.4 0 4.4 1.8 4.4 4l-7.7 47.3c0 2.2-2 4-4.4 4H940c-2.4 0-4.4-1.8-4.4-4l-7.7-47.3c0-2.2 2-4 4.4-4Z" fill="#969696"/>
        <path d="M937.2 608.3h76.3c2.2 0 3.9 1.5 3.9 3.3l-6.8 38.8c0 1.8-1.8 3.3-3.9 3.3H944c-2.2 0-3.9-1.5-3.9-3.3l-6.8-38.8c0-1.8 1.8-3.3 3.9-3.3Z" fill="#d8d9da"/>
        <rect width="71" height="12.7" x="274" y="655.7" fill="#707070" rx="3.7" ry="3.7" transform="rotate(180 309.55 662.05)"/>
        <path d="M266.5 603.1h86.2c2.4 0 4.4 1.8 4.4 4l-7.7 47.3c0 2.2-2 4-4.4 4h-70.8c-2.4 0-4.4-1.8-4.4-4l-7.7-47.3c0-2.2 2-4 4.4-4Z" fill="#969696"/>
        <path d="M271.4 608.3h76.3c2.2 0 3.9 1.5 3.9 3.3l-6.8 38.8c0 1.8-1.8 3.3-3.9 3.3h-62.7c-2.2 0-3.9-1.5-3.9-3.3l-6.8-38.8c0-1.8 1.8-3.3 3.9-3.3Z" fill="#d8d9da"/>
    </g>
</svg>
